<svg width="113" height="24" viewBox="0 0 113 24" fill="none" xmlns="http://www.w3.org/2000/svg">
<path fill-rule="evenodd" clip-rule="evenodd" d="M66.8345 1.07523L66.9056 1.10473C67.3488 1.29983 67.6724 1.64542 67.8411 2.05075C68.0105 2.45986 68.0218 2.93099 67.8365 3.36808C67.4208 4.42425 66.9323 5.7019 66.398 7.099C64.4482 12.198 61.8899 18.8883 60.0445 22.2099C59.9046 22.5427 59.6777 22.8141 59.3987 23.0017C59.1151 23.193 58.7778 23.2996 58.4247 23.2996C58.0617 23.2996 57.7214 23.1938 57.4348 23.0055C57.1482 22.8157 56.9183 22.5427 56.7784 22.2099C55.2373 19.4359 53.9142 15.8347 52.591 12.233C51.4405 9.10126 50.2898 5.96917 48.9954 3.38018C48.8192 2.9393 48.8366 2.46289 49.0075 2.05C49.1777 1.63937 49.5021 1.28849 49.94 1.09641L49.946 1.0949C50.3982 0.903574 50.8769 0.918698 51.2913 1.08809C51.7133 1.26126 52.0702 1.59627 52.2638 2.03638L58.4247 16.9285C59.0954 15.309 59.7966 13.6662 60.5018 12.0142C61.9283 8.67244 63.3707 5.29353 64.6075 1.99555C64.7905 1.58039 65.1323 1.26353 65.5339 1.0949C65.9369 0.923992 66.4035 0.902062 66.8345 1.07523ZM89.2975 19.6954H78.0564V13.8612H87.7193C88.2094 13.8612 88.6495 13.6661 88.9686 13.3493C89.2862 13.0316 89.4805 12.5915 89.4805 12.0992C89.4805 11.619 89.2832 11.1744 88.9618 10.853C88.6457 10.5369 88.2078 10.338 87.7186 10.338H78.0556V4.58548H89.0246C89.5161 4.58548 89.957 4.39189 90.2746 4.07353C90.5922 3.75592 90.7865 3.31504 90.7865 2.8235C90.7865 2.33196 90.5922 1.89185 90.2731 1.57348C89.9554 1.25663 89.5153 1.06152 89.0253 1.06152H76.2952C75.815 1.06152 75.3703 1.2589 75.0489 1.58029C74.7328 1.89638 74.5332 2.33423 74.5332 2.8235V21.4566C74.5332 21.9452 74.7321 22.383 75.0489 22.6999C75.3703 23.0212 75.815 23.2186 76.2952 23.2186H89.2975C89.7891 23.2186 90.2292 23.0235 90.5461 22.7051C90.8644 22.3868 91.0595 21.9467 91.0595 21.4566C91.0595 20.9659 90.8652 20.5257 90.5476 20.2066C90.2292 19.8898 89.7891 19.6954 89.2975 19.6954ZM18.2405 20.02C17.8934 19.7592 17.4472 19.6253 16.986 19.6684C16.9353 19.6677 16.7999 19.6586 16.6154 19.5648C16.3795 19.4438 16.0762 19.1927 15.77 18.6778C15.3442 17.9223 14.8625 17.219 14.3392 16.5755C13.955 16.1021 13.5474 15.662 13.124 15.2574L13.3599 15.1621C13.6442 15.0411 13.9157 14.905 14.1728 14.7621L14.1774 14.7606C15.2618 14.139 16.0959 13.2965 16.6585 12.2673C17.2181 11.2449 17.5077 10.0448 17.5077 8.69951C17.5077 8.09757 17.4646 7.51679 17.3724 6.964C17.2801 6.41196 17.1364 5.88791 16.9353 5.39864C16.7621 4.95096 16.5519 4.53201 16.3046 4.14786C16.0573 3.76446 15.7662 3.40903 15.4319 3.08386C15.0115 2.66416 14.5139 2.29211 13.9588 1.98433C13.4159 1.68411 12.823 1.44817 12.1984 1.2939C11.3015 1.06326 10.6111 1.0625 10.4969 1.0625H2.41823C1.92669 1.0625 1.48582 1.25685 1.16972 1.57521C0.850597 1.89358 0.65625 2.3337 0.65625 2.82372V21.4841C0.65625 21.9643 0.853622 22.4089 1.17501 22.7303C1.49111 23.0464 1.92896 23.2461 2.41823 23.2461C2.90599 23.2461 3.34308 23.0472 3.66145 22.7288C3.98284 22.4074 4.18021 21.9635 4.18021 21.4841V4.5857H10.4976C10.5445 4.5857 10.9423 4.59629 11.4588 4.74073C11.7348 4.81786 12.0418 4.93281 12.3405 5.10296C12.5802 5.24664 12.7897 5.40998 12.9712 5.59298C13.155 5.77674 13.3115 5.98168 13.4431 6.20627C13.6246 6.52086 13.7592 6.8846 13.8492 7.29447C13.9414 7.71416 13.986 8.18302 13.986 8.69876C13.986 9.43758 13.8651 10.0448 13.6102 10.5348C13.3614 11.0143 12.9788 11.3954 12.4494 11.6971C11.9601 11.9732 11.3597 12.1819 10.6504 12.324C9.9282 12.4677 9.09712 12.5403 8.1579 12.5403C7.70039 12.5403 7.2754 12.7105 6.95854 12.9963C6.64396 13.2792 6.43373 13.6762 6.39819 14.1337C6.34903 14.5866 6.47457 15.0154 6.72487 15.3534C6.97669 15.6937 7.35556 15.9418 7.8108 16.0287L7.85088 16.0371H7.88566C7.90154 16.0371 8.11177 16.1051 8.51408 16.2964C8.75985 16.4137 9.05477 16.574 9.37919 16.7872L9.38221 16.7887C10.0303 17.2039 10.6353 17.7174 11.1918 18.3216C11.7567 18.9341 12.2717 19.6412 12.7345 20.4329C13.186 21.2179 13.6957 21.7714 14.1917 22.1654C14.6939 22.564 15.1824 22.8014 15.5817 22.9489L15.5975 22.9534C15.9499 23.0668 16.2668 23.1288 16.5345 23.1591C16.9769 23.2098 17.3013 23.178 17.4374 23.1591C17.9138 23.0888 18.3199 22.8241 18.5884 22.4604C18.8561 22.0966 18.9884 21.6293 18.9181 21.1544C18.8485 20.681 18.5944 20.2847 18.2405 20.02ZM112.488 20.2348C112.171 19.9172 111.73 19.7229 111.239 19.7229H101.14V2.82372C101.14 2.3337 100.946 1.89358 100.628 1.57446C100.311 1.25685 99.8707 1.0625 99.3792 1.0625C98.899 1.0625 98.4543 1.25987 98.1329 1.58126C97.8168 1.89736 97.6172 2.33521 97.6172 2.82448V21.4848C97.6172 21.9718 97.8161 22.4089 98.1344 22.7281C98.4566 23.0494 98.9005 23.2468 99.3792 23.2468H111.239C111.73 23.2468 112.171 23.0517 112.488 22.7349C112.806 22.4172 113 21.9771 113 21.4848C113 20.9925 112.806 20.5517 112.488 20.2348ZM37.1311 1.33247C37.4071 1.50413 37.637 1.75292 37.7792 2.05465C38.7973 4.13632 39.8106 6.22386 40.8243 8.31221L40.8247 8.31297C42.8346 12.4536 44.846 16.5974 46.8999 20.7052C47.1018 21.1256 47.1169 21.5937 46.974 22.0089C46.8318 22.4233 46.5308 22.7878 46.1028 23.0018L46.065 23.0215C45.6272 23.24 45.1508 23.2544 44.7318 23.1122C44.3129 22.9708 43.9484 22.6706 43.7351 22.26C43.271 21.3317 42.8195 20.3899 42.3687 19.4496C42.1386 18.9696 41.9087 18.4901 41.6775 18.0131C41.0566 17.8482 40.4176 17.7529 39.7589 17.7295C39.0383 17.7038 38.2904 17.7635 37.516 17.9072C36.7916 18.038 36.0512 18.2376 35.2943 18.5069C34.5388 18.7753 33.7675 19.1149 32.9833 19.527C32.069 20.011 31.244 20.5343 30.5528 21.0152C29.1961 21.959 28.3651 22.7303 28.3477 22.7477C28.1911 22.9043 27.9983 23.0283 27.7926 23.113C27.5801 23.1999 27.354 23.2461 27.1385 23.2461C26.9593 23.2461 26.7664 23.2173 26.5759 23.1538C26.3997 23.0956 26.2288 23.0079 26.076 22.8891C25.7433 22.6396 25.5149 22.2834 25.4211 21.8947C25.3281 21.509 25.3644 21.0893 25.5557 20.7067L34.6129 2.03877C34.7702 1.74234 34.9986 1.49657 35.2716 1.32718C35.5461 1.15778 35.8607 1.0625 36.1919 1.0625C36.5269 1.0625 36.8536 1.16005 37.1311 1.33247ZM36.8581 14.452C37.4812 14.3416 38.0953 14.2645 38.704 14.2297C39.0723 14.2085 39.4383 14.2025 39.8021 14.2138L36.1949 6.83922L31.6259 16.2813C32.4373 15.8639 33.254 15.5077 34.0692 15.2143C35.0099 14.8755 35.9438 14.6222 36.8551 14.4536L36.8581 14.452Z" fill="#2C2C2C"/>
</svg>
