<svg width="20" height="21" viewBox="0 0 20 21" fill="none" xmlns="http://www.w3.org/2000/svg">
<path d="M19.7622 19.1139L15.5811 14.9328C16.8514 13.4064 17.6164 11.4448 17.6164 9.30954C17.6164 4.45122 13.6651 0.5 8.80681 0.5C3.95025 0.5 -0.000976562 4.45122 -0.000976562 9.30779C-0.000976562 14.1644 3.95025 18.1156 8.80681 18.1156C10.9438 18.1156 12.9037 17.3506 14.4301 16.0803L18.6112 20.2614C18.7708 20.421 18.9779 20.5 19.1867 20.5C19.3937 20.5 19.6025 20.421 19.7622 20.2614C20.0797 19.9456 20.0797 19.4315 19.7622 19.1139ZM1.62548 9.30779C1.62548 5.34779 4.84682 2.12646 8.80681 2.12646C12.7668 2.12646 15.9899 5.34779 15.9899 9.30779C15.9899 13.2678 12.7668 16.4909 8.80681 16.4909C4.84682 16.4909 1.62548 13.2678 1.62548 9.30779Z" fill="#2C2C2C"/>
</svg>
